<?xml version="1.0" encoding="UTF-8"?>
<svg width="20px" height="20px" viewBox="0 0 700.000000 649.000000" version="1.0" xmlns="http://www.w3.org/2000/svg">
<g transform="translate(0.000000,649.000000) scale(0.100000,-0.100000)"
fill="#000000" stroke="none">
<path d="M1404 6360 c-51 -16 -126 -72 -156 -115 -18 -27 -138 -384 -378
-1125 -193 -597 -441 -1362 -552 -1700 l-200 -614 4 -96 c3 -82 7 -104 34
-161 19 -40 51 -84 80 -112 60 -57 3166 -2314 3211 -2333 44 -19 92 -17 133 4
57 29 3151 2278 3204 2329 29 28 61 72 80 112 27 57 31 79 34 161 l4 95 -317
975 c-174 536 -422 1301 -552 1700 -129 399 -242 736 -250 750 -28 46 -67 82
-118 108 -42 22 -63 27 -130 27 -121 0 -206 -48 -254 -144 -15 -28 -379 -1139
-666 -2028 l-36 -113 -1069 0 -1069 0 -6 23 c-52 173 -682 2092 -696 2118 -26
51 -76 99 -129 122 -51 23 -159 31 -206 17z m387 -1350 c165 -507 298 -924
296 -926 -2 -2 -273 -3 -603 -2 l-599 3 300 927 c165 509 301 925 303 924 1
-2 137 -418 303 -926z m4060 -45 l286 -880 -600 -3 c-330 -1 -602 -1 -603 1
-3 3 432 1354 588 1827 l12 35 15 -50 c9 -27 145 -446 302 -930z m-3527 -1597
c68 -211 244 -752 391 -1203 146 -451 284 -874 305 -939 22 -66 36 -116 31
-110 -4 5 -464 594 -1021 1309 -557 715 -1017 1306 -1023 1313 -7 9 112 12
591 12 l601 0 125 -382z m2143 370 c-2 -7 -217 -669 -478 -1470 -260 -802
-476 -1458 -479 -1458 -3 0 -218 658 -479 1463 -261 804 -476 1465 -478 1470
-2 4 429 7 957 7 766 0 961 -3 957 -12z m1548 1 c-11 -16 -2036 -2613 -2048
-2624 -7 -7 -8 -7 -5 0 3 6 173 525 378 1155 204 630 396 1220 426 1313 l55
167 600 0 c423 0 598 -3 594 -11z m-4321 -1428 c516 -661 936 -1204 935 -1205
-4 -3 -2126 1539 -2158 1568 -12 11 -21 31 -21 49 0 16 60 211 132 434 l133
405 21 -25 c11 -13 442 -565 958 -1226z m4876 413 c0 -20 -9 -38 -27 -56 -25
-22 -2118 -1543 -2152 -1563 -7 -4 27 44 76 106 49 63 467 598 928 1189 461
591 854 1095 874 1119 l36 44 132 -404 c73 -222 133 -418 133 -435z"/>
</g>
</svg>
